<svg width="240" height="114" viewBox="0 0 240 114" fill="none" xmlns="http://www.w3.org/2000/svg">
<path d="M11.041 91.5195C8.69727 91.5195 6.59766 91.2591 4.74219 90.7383C2.88672 90.2174 1.95898 89.4362 1.95898 88.3945C1.95898 87.1901 2.00781 85.0417 2.10547 81.9492C2.43099 75.0482 2.59375 66.4544 2.59375 56.168C2.59375 50.4062 2.47982 44.4818 2.25195 38.3945L1.86133 27.5547C1.60091 18.7982 1.24284 11.3112 0.787109 5.09375L0.835938 3.38477C0.835938 2.53841 1.86133 1.87109 3.91211 1.38281C5.96289 0.894531 8.22526 0.650391 10.6992 0.650391C13.1406 0.650391 15.3704 0.927083 17.3887 1.48047C19.4395 2.03385 20.5625 2.89648 20.7578 4.06836C20.9531 5.72852 21.0833 7.53516 21.1484 9.48828C23.9805 4.76823 27.9355 2.29427 33.0137 2.06641H33.6484C36.9036 2.06641 40.1426 3.01042 43.3652 4.89844C46.5879 6.75391 49.2734 9.3418 51.4219 12.6621C53.668 16.2103 54.8073 20.3118 54.8398 24.9668C54.8398 28.7754 54.1562 32.3236 52.7891 35.6113C51.4544 38.8991 49.6803 41.7799 47.4668 44.2539C45.2533 46.6953 42.8118 48.6159 40.1426 50.0156C37.5059 51.4154 34.8854 52.1152 32.2812 52.1152C29.8073 52.1152 27.3984 51.3503 25.0547 49.8203C26.0312 52.1641 27.4473 56.0215 29.3027 61.3926C30.5397 65.1035 31.8743 68.8307 33.3066 72.5742C34.7389 76.3177 36.2689 79.5566 37.8965 82.291C39.5566 84.9928 41.2982 86.6204 43.1211 87.1738C43.4141 87.2715 43.7233 87.3203 44.0488 87.3203C45.2207 87.3203 46.4577 86.7344 47.7598 85.5625C47.9876 85.3672 48.248 85.2695 48.541 85.2695C48.8665 85.2695 49.1432 85.3835 49.3711 85.6113C49.599 85.8717 49.7129 86.1484 49.7129 86.4414C49.7129 86.7669 49.5827 87.0599 49.3223 87.3203C47.5645 88.8828 45.8066 89.6641 44.0488 89.6641C43.7233 89.6641 43.2025 89.599 42.4863 89.4688C40.2728 88.8177 38.2708 87.125 36.4805 84.3906C34.6901 81.6888 33.0299 78.3685 31.5 74.4297C30.1328 71.0117 28.554 66.6335 26.7637 61.2949C25.1686 56.4121 23.6224 52.3105 22.125 48.9902C22.2878 57.0957 22.3691 64.2572 22.3691 70.4746C22.3691 75.9108 22.3529 80.2891 22.3203 83.6094L22.2715 87.3203C22.2715 88.2643 21.7018 89.0456 20.5625 89.6641C19.4557 90.2826 18.0397 90.7383 16.3145 91.0312C14.5892 91.3568 12.8314 91.5195 11.041 91.5195ZM30.1816 50.1133C31.972 50.1133 33.4531 48.974 34.625 46.6953C35.8294 44.4167 36.7083 41.5033 37.2617 37.9551C37.8477 34.4069 38.1406 30.696 38.1406 26.8223C38.1406 23.0462 37.8639 19.4492 37.3105 16.0312C36.7897 12.5807 36.0085 9.76497 34.9668 7.58398C33.9251 5.40299 32.623 4.3125 31.0605 4.3125C30.8327 4.3125 30.5885 4.34505 30.3281 4.41016C26.487 5.35417 23.4596 8.00716 21.2461 12.3691C21.3112 15.1686 21.36 18.1797 21.3926 21.4023C21.4251 26.6432 21.5553 32.291 21.7832 38.3457C21.8809 40.2337 21.946 42.1217 21.9785 44.0098C22.6947 45.3118 23.6549 46.4674 24.8594 47.4766C26.0638 48.4531 27.252 49.2018 28.4238 49.7227C29.0423 49.9831 29.6283 50.1133 30.1816 50.1133ZM71.6367 82.4375C67.763 82.4375 64.1335 81.819 60.748 80.582C57.3952 79.3125 54.6608 77.278 52.5449 74.4785C50.2337 71.4512 48.9967 67.3984 48.834 62.3203C48.834 58.6094 49.7292 55.11 51.5195 51.8223C53.3424 48.502 55.8001 45.8164 58.8926 43.7656C62.0176 41.6823 65.5332 40.6406 69.4395 40.6406L70.7578 40.6895C72.5807 40.7871 74.4036 41.2266 76.2266 42.0078C77.7565 42.6589 78.9121 43.6354 79.6934 44.9375C80.5072 46.207 80.9141 47.6068 80.9141 49.1367C80.9141 50.5039 80.556 51.8711 79.8398 53.2383C79.1237 54.6055 78.0332 55.8099 76.5684 56.8516C74.8431 58.0234 72.8737 58.6094 70.6602 58.6094C69 58.6094 67.5189 58.3327 66.2168 57.7793C66.1191 58.6257 66.0703 59.5208 66.0703 60.4648C66.0703 63.069 66.4772 65.8359 67.291 68.7656C68.1048 71.6628 69.3581 74.153 71.0508 76.2363C72.9388 78.4824 75.3639 79.6868 78.3262 79.8496C80.8327 79.8496 83.3229 78.4173 85.7969 75.5527C88.5964 72.3301 90.875 68.4564 92.6328 63.9316C93.7396 61.0671 94.4395 58.4792 94.7324 56.168C94.7975 55.9076 94.9115 55.696 95.0742 55.5332C95.2695 55.3704 95.5137 55.2891 95.8066 55.2891C96.0996 55.3542 96.3112 55.4844 96.4414 55.6797C96.6042 55.8424 96.6855 56.0703 96.6855 56.3633C96.36 58.8372 95.6113 61.5879 94.4395 64.6152C93.2676 67.6426 91.7865 70.5072 89.9961 73.209C88.1406 76.041 86.0736 78.2708 83.7949 79.8984C81.2233 81.5911 77.1706 82.4375 71.6367 82.4375ZM71.002 56.7051C72.6296 56.7051 74.0293 56.3145 75.2012 55.5332C76.4056 54.752 77.3008 53.7754 77.8867 52.6035C78.5052 51.4316 78.8145 50.2598 78.8145 49.0879C78.8145 48.0788 78.5703 47.1348 78.082 46.2559C77.6263 45.377 76.8939 44.7096 75.8848 44.2539C75.3639 44.026 74.8431 43.9121 74.3223 43.9121C72.89 43.9121 71.5879 44.6283 70.416 46.0605C69.2767 47.4603 68.349 49.0716 67.6328 50.8945C66.9492 52.7174 66.5749 54.3451 66.5098 55.7773C67.7793 56.3958 69.2767 56.7051 71.002 56.7051ZM116.461 82.4375C112.587 82.4375 108.958 81.819 105.572 80.582C102.219 79.3125 99.485 77.278 97.3691 74.4785C95.0579 71.4512 93.821 67.3984 93.6582 62.3203C93.6582 58.6094 94.5534 55.11 96.3438 51.8223C98.1667 48.502 100.624 45.8164 103.717 43.7656C106.842 41.6823 110.357 40.6406 114.264 40.6406L115.582 40.6895C117.405 40.7871 119.228 41.2266 121.051 42.0078C122.581 42.6589 123.736 43.6354 124.518 44.9375C125.331 46.207 125.738 47.6068 125.738 49.1367C125.738 50.5039 125.38 51.8711 124.664 53.2383C123.948 54.6055 122.857 55.8099 121.393 56.8516C119.667 58.0234 117.698 58.6094 115.484 58.6094C113.824 58.6094 112.343 58.3327 111.041 57.7793C110.943 58.6257 110.895 59.5208 110.895 60.4648C110.895 63.069 111.301 65.8359 112.115 68.7656C112.929 71.6628 114.182 74.153 115.875 76.2363C117.763 78.4824 120.188 79.6868 123.15 79.8496C125.657 79.8496 128.147 78.4173 130.621 75.5527C133.421 72.3301 135.699 68.4564 137.457 63.9316C138.564 61.0671 139.264 58.4792 139.557 56.168C139.622 55.9076 139.736 55.696 139.898 55.5332C140.094 55.3704 140.338 55.2891 140.631 55.2891C140.924 55.3542 141.135 55.4844 141.266 55.6797C141.428 55.8424 141.51 56.0703 141.51 56.3633C141.184 58.8372 140.436 61.5879 139.264 64.6152C138.092 67.6426 136.611 70.5072 134.82 73.209C132.965 76.041 130.898 78.2708 128.619 79.8984C126.048 81.5911 121.995 82.4375 116.461 82.4375ZM115.826 56.7051C117.454 56.7051 118.854 56.3145 120.025 55.5332C121.23 54.752 122.125 53.7754 122.711 52.6035C123.329 51.4316 123.639 50.2598 123.639 49.0879C123.639 48.0788 123.395 47.1348 122.906 46.2559C122.451 45.377 121.718 44.7096 120.709 44.2539C120.188 44.026 119.667 43.9121 119.146 43.9121C117.714 43.9121 116.412 44.6283 115.24 46.0605C114.101 47.4603 113.173 49.0716 112.457 50.8945C111.773 52.7174 111.399 54.3451 111.334 55.7773C112.604 56.3958 114.101 56.7051 115.826 56.7051ZM168.072 95.084H166.998C162.18 95.084 158.03 93.9284 154.547 91.6172C151.064 89.306 148.199 86.181 145.953 82.2422C143.707 78.2708 142.031 73.7786 140.924 68.7656C139.85 63.7201 139.312 58.5117 139.312 53.1406C139.312 45.1328 140.419 37.3366 142.633 29.752C144.879 22.1348 148.085 15.901 152.252 11.0508C156.451 6.16797 161.48 3.61263 167.34 3.38477H167.779C170.774 3.38477 173.085 4.00326 174.713 5.24023C177.024 7.0306 178.18 10.8229 178.18 16.6172C178.18 19.7422 177.805 23.1764 177.057 26.9199C175.917 32.7142 174.013 38.2318 171.344 43.4727C168.023 49.918 164.036 54.1335 159.381 56.1191L159.479 58.6094C159.511 61.3112 159.641 64.5013 159.869 68.1797C160.423 77.2292 161.92 83.8698 164.361 88.1016C165.956 90.7708 167.991 92.1055 170.465 92.1055H170.807C173.834 91.8451 176.373 90.3151 178.424 87.5156C180.507 84.7161 182.184 81.3145 183.453 77.3105C184.723 73.3066 185.667 69.3841 186.285 65.543C186.904 61.7018 187.294 58.5931 187.457 56.2168C187.49 55.9564 187.604 55.7448 187.799 55.582C187.994 55.3867 188.222 55.2891 188.482 55.2891C188.775 55.3216 189.003 55.4355 189.166 55.6309C189.329 55.7936 189.41 56.0215 189.41 56.3145C188.792 65.5592 187.197 73.5833 184.625 80.3867C181.142 89.7292 175.624 94.6283 168.072 95.084ZM159.332 54.0195C163.434 51.8385 166.868 48.0137 169.635 42.5449C172.206 37.4993 174.046 32.1608 175.152 26.5293C175.901 22.8835 176.275 19.5632 176.275 16.5684C176.275 14.9408 176.161 13.4434 175.934 12.0762C175.413 8.75586 174.273 6.75391 172.516 6.07031C172.092 5.9401 171.686 5.875 171.295 5.875C169.798 5.875 168.479 6.6888 167.34 8.31641C166.201 9.91146 165.191 11.9622 164.312 14.4688C163.466 16.9753 162.734 19.6445 162.115 22.4766C161.529 25.3086 161.057 27.9779 160.699 30.4844C160.341 32.9909 160.081 35.0417 159.918 36.6367C159.495 40.9987 159.283 45.5072 159.283 50.1621L159.332 54.0195ZM201.52 113.053L200.055 113.004C199.566 112.939 199.094 112.841 198.639 112.711C196.653 111.962 195.66 110.237 195.66 107.535L195.709 106.461C195.872 103.824 197.125 100.374 199.469 96.1094C201.812 91.8776 206.061 86.4414 212.213 79.8008L212.457 71.4512C212.62 65.2012 212.848 58.8372 213.141 52.3594C211.773 56.0703 209.804 59.0651 207.232 61.3438C205.963 62.3529 204.303 63.2318 202.252 63.9805C200.234 64.6966 198.215 65.0547 196.197 65.0547C193.723 65.0547 191.786 64.4362 190.387 63.1992C188.173 61.1484 187.066 58.0072 187.066 53.7754C187.066 50.0645 187.913 45.1654 189.605 39.0781C189.833 38.4596 190.696 37.9551 192.193 37.5645C193.691 37.1413 195.351 36.9297 197.174 36.9297C198.476 36.9297 199.713 37.0599 200.885 37.3203C202.089 37.5482 203.066 37.9388 203.814 38.4922C204.563 39.0456 204.938 39.7617 204.938 40.6406V40.7871C203.375 48.0462 202.594 53.5312 202.594 57.2422C202.594 59.8464 203.049 61.1484 203.961 61.1484C204.482 61.1484 205.165 60.709 206.012 59.8301C208.16 57.9746 209.82 55.582 210.992 52.6523C212.164 49.6901 213.092 46.5 213.775 43.082C213.971 41.4544 214.166 40.0872 214.361 38.9805C214.589 37.8411 215.631 36.9622 217.486 36.3438C219.342 35.7253 221.295 35.416 223.346 35.416C224.941 35.416 226.34 35.6113 227.545 36.002C228.749 36.3926 229.4 36.9948 229.498 37.8086C229.628 40.8034 229.693 43.5703 229.693 46.1094C229.693 50.0807 229.596 53.8568 229.4 57.4375L229.156 64.7129C230.361 63.7363 231.288 62.9714 231.939 62.418C232.59 61.832 233.193 61.2298 233.746 60.6113C234.332 59.9928 235.113 59.0977 236.09 57.9258L237.848 55.875C238.076 55.6471 238.32 55.5332 238.58 55.5332C238.808 55.5332 239.02 55.6309 239.215 55.8262C239.443 55.9889 239.557 56.2168 239.557 56.5098C239.557 56.7376 239.475 56.9492 239.312 57.1445L235.211 61.8809C234.104 63.0853 232.07 64.8919 229.107 67.3008C229.042 73.2904 228.359 79.0033 227.057 84.4395C225.755 89.9082 223.915 94.791 221.539 99.0879C219.163 103.385 216.282 106.786 212.896 109.293C209.544 111.799 205.751 113.053 201.52 113.053ZM200.494 111.1L200.982 111.051C201.731 110.953 202.545 110.709 203.424 110.318C206.061 108.756 207.981 106.445 209.186 103.385C210.423 100.357 211.22 97.1348 211.578 93.7168C211.936 90.2988 212.132 87.2878 212.164 84.6836L212.213 82.6816C206.842 88.6387 203.098 93.5215 200.982 97.3301C198.899 101.171 197.792 104.28 197.662 106.656L197.613 107.486C197.613 109.895 198.574 111.1 200.494 111.1Z" fill="white"/>
</svg>
